<svg width="24" height="24" viewBox="0 0 24 24" fill="none" xmlns="http://www.w3.org/2000/svg">
<path d="M14.8099 5.92V3.56C14.8099 3.41148 14.7509 3.26904 14.6459 3.16402C14.5409 3.059 14.3984 3 14.2499 3H9.7499C9.60138 3 9.45894 3.059 9.35392 3.16402C9.2489 3.26904 9.1899 3.41148 9.1899 3.56V5.92C8.33599 6.19314 7.59685 6.74189 7.08832 7.48025C6.5798 8.2186 6.33064 9.10482 6.3799 10C6.34395 12.1334 6.55196 14.2639 6.9999 16.35C7.27914 17.5204 7.43334 18.7171 7.4599 19.92C7.4612 20.064 7.49101 20.2063 7.54763 20.3387C7.60424 20.4711 7.68653 20.591 7.78974 20.6914C7.89295 20.7918 8.01503 20.8708 8.14894 20.9238C8.28285 20.9767 8.42592 21.0026 8.5699 21H15.4299C15.5717 20.9987 15.7119 20.9695 15.8424 20.914C15.973 20.8585 16.0913 20.7778 16.1907 20.6766C16.29 20.5754 16.3685 20.4556 16.4215 20.3241C16.4746 20.1925 16.5012 20.0518 16.4999 19.91C16.5046 18.4558 16.6723 17.0068 16.9999 15.59C17.4162 13.7559 17.6242 11.8807 17.6199 10C17.678 9.10312 17.4323 8.21282 16.9225 7.47263C16.4128 6.73244 15.6685 6.1855 14.8099 5.92ZM8.6199 19.92C8.59268 18.6533 8.43179 17.3929 8.1399 16.16C7.71683 14.2524 7.50555 12.3039 7.5099 10.35H8.0699C8.08369 12.2495 8.29143 14.1427 8.6899 16C8.90034 16.9192 9.05065 17.8512 9.1399 18.79C9.15012 18.9306 9.21392 19.0619 9.31812 19.1568C9.42233 19.2517 9.55899 19.3029 9.6999 19.3H14.2799C14.4241 19.3027 14.5636 19.2487 14.6683 19.1496C14.7731 19.0504 14.8347 18.9141 14.8399 18.77C14.92 17.5821 15.0905 16.402 15.3499 15.24C15.366 15.1684 15.3675 15.0942 15.3545 15.022C15.3415 14.9497 15.3141 14.8808 15.2741 14.8193C15.234 14.7578 15.182 14.705 15.1212 14.6638C15.0604 14.6227 14.9919 14.5942 14.9199 14.58C14.7728 14.5504 14.6199 14.58 14.4945 14.6623C14.3691 14.7447 14.2812 14.8732 14.2499 15.02C14.0213 16.0622 13.8577 17.1175 13.7599 18.18H10.2099C10.1099 17.29 9.9499 16.52 9.7999 15.78C9.41302 13.9785 9.20866 12.1425 9.1899 10.3H16.4899C16.4733 12.0028 16.2755 13.699 15.8999 15.36C15.5593 16.8395 15.3816 18.3518 15.3699 19.87L8.6199 19.92ZM13.6899 5.81H11.4399V4.12H13.6899V5.81ZM10.8799 5.81H10.3099V4.12H10.8799V5.81ZM9.9999 6.94H13.9999C14.5974 6.98268 15.162 7.22958 15.599 7.63927C16.036 8.04896 16.3188 8.5965 16.3999 9.19H7.5999C7.681 8.5965 7.96378 8.04896 8.40078 7.63927C8.83778 7.22958 9.40241 6.98268 9.9999 6.94V6.94Z" fill="#3D6666"/>
<path d="M15.3799 8.06006H8.62988V8.62006H15.3799V8.06006Z" fill="#3D6666"/>
</svg>
