<svg width="24" height="24" viewBox="0 0 24 24" fill="none" xmlns="http://www.w3.org/2000/svg">
<path d="M18.54 5.36995L15.73 3.11995C15.6625 3.06501 15.5826 3.02722 15.4973 3.00981C15.412 2.99239 15.3237 2.99587 15.24 3.01995C15.1564 3.04046 15.0785 3.08 15.0126 3.13551C14.9467 3.19101 14.8945 3.26097 14.86 3.33995L13.8 5.80995H12C11.8943 5.19696 11.621 4.6252 11.2103 4.15798C10.7997 3.69076 10.2677 3.34631 9.6734 3.16278C9.07906 2.97924 8.44551 2.96379 7.84293 3.11813C7.24034 3.27247 6.69223 3.59057 6.25929 4.03722C5.82635 4.48387 5.52548 5.04163 5.38999 5.64873C5.25451 6.25583 5.28969 6.88859 5.49166 7.47692C5.69362 8.06526 6.05448 8.58622 6.53427 8.98211C7.01406 9.378 7.59406 9.63338 8.21005 9.71995C8.12005 10.09 8.03005 10.43 7.94005 10.72C7.68515 11.4825 7.53708 12.2767 7.50005 13.0799C7.49403 14.0175 7.83483 14.9242 8.45692 15.6257C9.07902 16.3271 9.93848 16.7739 10.87 16.8799V17.7499C9.29005 18.3799 8.06005 19.52 8.06005 20.4C8.06003 20.4743 8.07484 20.548 8.10361 20.6166C8.13238 20.6852 8.17452 20.7474 8.22759 20.7995C8.28065 20.8516 8.34357 20.8927 8.41267 20.9202C8.48177 20.9478 8.55567 20.9613 8.63005 20.9599H15.94C16.0886 20.9599 16.231 20.901 16.336 20.7959C16.441 20.6909 16.5 20.5485 16.5 20.4C16.5 19.52 15.27 18.3999 13.69 17.7499V16.8799C14.6225 16.776 15.4832 16.3299 16.1058 15.628C16.7283 14.926 17.0683 14.0181 17.06 13.0799C17.0233 12.253 16.8718 11.4352 16.61 10.6499C16.1779 9.2536 15.9522 7.80159 15.94 6.33995C15.9414 6.26472 15.9276 6.18999 15.8994 6.12023C15.8713 6.05046 15.8293 5.98708 15.7761 5.93388C15.7229 5.88068 15.6595 5.83874 15.5898 5.81058C15.52 5.78241 15.4453 5.76859 15.37 5.76995H15L15.58 4.41995L17.82 6.20995C17.8771 6.2575 17.9433 6.293 18.0145 6.31428C18.0857 6.33557 18.1605 6.3422 18.2343 6.33379C18.3081 6.32538 18.3795 6.3021 18.4441 6.26534C18.5086 6.22859 18.5651 6.17913 18.61 6.11995C18.6916 6.00781 18.7295 5.86979 18.7166 5.73174C18.7037 5.59368 18.6409 5.46506 18.54 5.36995V5.36995ZM15.94 13.1199C15.94 15.1199 14.24 15.8499 12.56 15.9299V18.1899C12.5505 18.2496 12.5505 18.3103 12.56 18.37C12.5906 18.4512 12.6387 18.5247 12.701 18.5852C12.7632 18.6457 12.838 18.6917 12.92 18.7199C13.662 18.9591 14.344 19.3547 14.92 19.8799H9.61005C10.1872 19.3562 10.8688 18.9608 11.61 18.7199C11.6917 18.693 11.7659 18.6473 11.8266 18.5865C11.8874 18.5258 11.9331 18.4516 11.96 18.37C11.9696 18.3103 11.9696 18.2496 11.96 18.1899V15.9299C10.28 15.8499 8.59005 15.0899 8.59005 13.1199C8.63795 12.4186 8.77574 11.7262 9.00005 11.0599C9.41728 9.72355 9.6593 8.33865 9.72005 6.93995H14.8C14.8728 8.31847 15.118 9.68243 15.53 10.9999C15.7596 11.6855 15.8974 12.3983 15.94 13.1199ZM8.63005 4.11995C9.12773 4.12199 9.61069 4.28897 10.0033 4.59477C10.396 4.90057 10.6762 5.32792 10.8 5.80995H9.19005C9.11566 5.80994 9.04201 5.82475 8.97341 5.85351C8.90481 5.88228 8.84262 5.92443 8.79049 5.97749C8.73835 6.03055 8.69732 6.09347 8.66977 6.16257C8.64222 6.23168 8.62872 6.30557 8.63005 6.37995C8.62924 7.12729 8.56569 7.87324 8.44005 8.60995C8.14588 8.59747 7.85706 8.52718 7.59007 8.40309C7.32307 8.27899 7.08313 8.10352 6.88395 7.88669C6.48169 7.4488 6.26985 6.86903 6.29505 6.27495C6.32024 5.68086 6.5804 5.12112 7.0183 4.71886C7.4562 4.31659 8.03596 4.10475 8.63005 4.12995V4.11995Z" fill="#3D6666"/>
<path d="M14.2499 13.12C14.2499 13.87 13.5899 14.25 12.2499 14.25C10.9099 14.25 10.2499 13.87 10.2499 13.12C10.2959 12.7374 10.3865 12.3615 10.5199 12H14.8099L14.2499 8.63H11.2499C11.2499 8.46 11.2999 8.3 11.3199 8.12C11.334 7.97183 11.2896 7.82403 11.1962 7.70818C11.1027 7.59232 10.9677 7.51761 10.8199 7.5C10.7463 7.49168 10.6718 7.49806 10.6006 7.51875C10.5295 7.53944 10.4632 7.57404 10.4055 7.62055C10.3479 7.66705 10.3 7.72454 10.2647 7.78967C10.2294 7.85481 10.2074 7.92629 10.1999 8C10.0725 9.0878 9.84828 10.1621 9.52991 11.21C9.32653 11.8285 9.20221 12.4703 9.15991 13.12C9.15991 14.55 10.2899 15.38 12.2499 15.38C14.2099 15.38 15.3399 14.55 15.3399 13.12C15.3399 12.9715 15.2809 12.829 15.1759 12.724C15.0709 12.619 14.9284 12.56 14.7799 12.56C14.6314 12.56 14.489 12.619 14.3839 12.724C14.2789 12.829 14.2199 12.9715 14.2199 13.12H14.2499Z" fill="#3D6666"/>
</svg>
