<svg width="24" height="24" viewBox="0 0 24 24" fill="none" xmlns="http://www.w3.org/2000/svg">
<path d="M17.54 6.92004H6.46004C6.33884 6.9226 6.22332 6.97188 6.1376 7.0576C6.05188 7.14332 6.00259 7.25884 6.00004 7.38004V12.92C5.99847 13.038 6.0413 13.1522 6.12004 13.24C6.57087 13.6723 6.91832 14.2007 7.13648 14.786C7.35465 15.3712 7.4379 15.9982 7.38004 16.62C7.38266 16.743 7.43333 16.8599 7.52119 16.9459C7.60905 17.0319 7.7271 17.0801 7.85004 17.08H16.15C16.273 17.0801 16.391 17.0319 16.4789 16.9459C16.5668 16.8599 16.6174 16.743 16.62 16.62C16.5919 16.0064 16.6862 15.3933 16.8974 14.8164C17.1085 14.2396 17.4324 13.7105 17.85 13.26C17.8978 13.2173 17.9359 13.1649 17.9618 13.1063C17.9876 13.0476 18.0007 12.9841 18 12.92V7.38004C17.9975 7.25884 17.9482 7.14332 17.8625 7.0576C17.7768 6.97188 17.6612 6.9226 17.54 6.92004V6.92004ZM17.08 12.73C16.2344 13.6728 15.7491 14.8842 15.71 16.15H8.30004C8.30677 14.8761 7.81091 13.6508 6.92004 12.74V7.85004H17.08V12.73Z" fill="#3D6666"/>
<path d="M8.67988 15.3C8.69674 15.4096 8.75255 15.5093 8.83706 15.5809C8.92156 15.6526 9.0291 15.6913 9.13988 15.69H14.8899C14.9975 15.6893 15.1015 15.6509 15.1837 15.5815C15.2659 15.5121 15.3212 15.416 15.3399 15.31C15.451 14.7135 15.6428 14.1349 15.9099 13.59C15.9375 13.5362 15.9543 13.4775 15.9592 13.4171C15.9642 13.3568 15.9571 13.2961 15.9385 13.2385C15.92 13.1809 15.8902 13.1276 15.851 13.0815C15.8117 13.0354 15.7638 12.9976 15.7099 12.97C15.6555 12.9427 15.5962 12.9265 15.5354 12.9223C15.4747 12.9181 15.4137 12.926 15.356 12.9455C15.2983 12.965 15.2451 12.9958 15.1994 13.0361C15.1537 13.0764 15.1165 13.1253 15.0899 13.18C14.8358 13.6859 14.6412 14.2194 14.5099 14.77H9.50988C9.31689 13.8413 8.90171 12.9732 8.29988 12.24V11.08H16.1399V10.62H8.30988V9.23004H11.0799C11.2011 9.22749 11.3166 9.17821 11.4023 9.09249C11.488 9.00677 11.5373 8.89124 11.5399 8.77005C11.5399 8.70964 11.528 8.64982 11.5049 8.59401C11.4818 8.5382 11.4479 8.48749 11.4052 8.44478C11.3624 8.40206 11.3117 8.36818 11.2559 8.34506C11.2001 8.32194 11.1403 8.31005 11.0799 8.31005H7.84988C7.78864 8.30871 7.72775 8.31963 7.67078 8.34215C7.61381 8.36467 7.56191 8.39834 7.51813 8.44119C7.47435 8.48404 7.43957 8.5352 7.41583 8.59167C7.39209 8.64814 7.37987 8.70879 7.37988 8.77005V12.4C7.38121 12.5097 7.42003 12.6155 7.48988 12.7C8.13119 13.4324 8.54477 14.336 8.67988 15.3V15.3Z" fill="#3D6666"/>
</svg>
