<svg width="24" height="24" viewBox="0 0 24 24" fill="none" xmlns="http://www.w3.org/2000/svg">
<path d="M13.55 17.46V13.34C14.6046 13.0632 15.5398 12.4493 16.2132 11.5918C16.8865 10.7343 17.2612 9.68015 17.28 8.59C17.2542 6.77808 16.8345 4.99346 16.05 3.36C16.0005 3.25295 15.9216 3.16223 15.8224 3.09846C15.7232 3.0347 15.6079 3.00054 15.49 3H8.48997C8.38425 3.01287 8.28363 3.05275 8.19781 3.11581C8.11199 3.17886 8.04385 3.26296 7.99997 3.36C7.20961 4.99369 6.77341 6.77596 6.71997 8.59C6.73877 9.68015 7.1134 10.7343 7.78677 11.5918C8.46015 12.4493 9.39537 13.0632 10.45 13.34V17.46C8.69997 18.16 7.33997 19.41 7.33997 20.38C7.34122 20.4645 7.35944 20.5478 7.39355 20.6251C7.42767 20.7024 7.47698 20.772 7.53856 20.8299C7.60013 20.8877 7.67271 20.9326 7.75198 20.9618C7.83125 20.991 7.91558 21.004 7.99997 21H16C16.1653 21 16.3241 20.935 16.4419 20.819C16.5598 20.703 16.6273 20.5453 16.63 20.38C16.66 19.41 15.3 18.16 13.55 17.46ZM12.31 19.76H9.05997C9.69718 19.1833 10.4508 18.7502 11.27 18.49C11.3914 18.4456 11.4965 18.3654 11.5715 18.2601C11.6464 18.1548 11.6877 18.0293 11.69 17.9V12.3C10.7183 12.2673 9.79563 11.8653 9.11001 11.176C8.42439 10.4867 8.02742 9.56185 7.99997 8.59C8.0326 7.09327 8.35168 5.61665 8.93997 4.24H15.12C15.6998 5.61702 15.9989 7.0959 16 8.59C15.9722 9.56688 15.571 10.4959 14.879 11.186C14.1871 11.8762 13.2569 12.2748 12.28 12.3V17.9C12.2822 18.0293 12.3235 18.1548 12.3985 18.2601C12.4735 18.3654 12.5786 18.4456 12.7 18.49C13.551 18.7382 14.3365 19.1719 15 19.76H12.31ZM8.58997 8.59C8.62427 7.5263 8.83375 6.47554 9.20997 5.48H12.93V8.59C12.93 8.75443 12.9953 8.91213 13.1116 9.02841C13.2278 9.14468 13.3855 9.21 13.55 9.21C13.7144 9.21 13.8721 9.14468 13.9884 9.02841C14.1046 8.91213 14.17 8.75443 14.17 8.59V5.48H14.79C15.1687 6.47482 15.3783 7.526 15.41 8.59C15.41 12.56 8.58997 12.89 8.58997 8.59Z" fill="#3D6666"/>
</svg>
