<svg width="31" height="30" viewBox="0 0 31 30" fill="none" xmlns="http://www.w3.org/2000/svg">
<g clip-path="url(#clip0_1_3666)">
<path d="M15.506 29.9997C15.506 29.9997 15.5022 29.9997 15.4936 29.9997C14.9925 29.9997 -0.855868 29.919 0.594214 20.9424C0.603704 20.8799 0.614143 20.8174 0.625531 20.754C0.647359 20.6349 0.672982 20.5138 0.701452 20.3908C0.755545 20.1583 0.810588 19.9267 0.866579 19.6942C0.902641 19.5462 0.938704 19.3982 0.975715 19.2512C1.00988 19.1147 1.04404 18.9783 1.07916 18.8409C1.11237 18.7112 1.14559 18.5815 1.17975 18.4527C1.1807 18.4479 1.1826 18.444 1.18355 18.4392C1.24713 18.1971 1.31261 17.955 1.38094 17.7138C1.38948 17.6811 1.39802 17.6484 1.40751 17.6158C1.90195 15.8487 2.48748 14.1075 3.20493 12.4221C3.98786 10.5859 4.97388 8.93506 6.11933 7.30827C7.78389 4.94544 9.75118 2.35968 12.2537 0.855885C13.2198 0.274546 14.3681 -0.0905927 15.5003 0.0189489C16.6324 -0.0905927 17.7798 0.274546 18.7459 0.855885C21.2484 2.35968 23.2157 4.94544 24.8802 7.30827C26.0257 8.93506 27.0117 10.5859 27.7937 12.4221C28.682 14.5044 29.3662 16.6722 29.9271 18.8697C29.9859 19.0975 30.0428 19.3261 30.0988 19.5548C30.1007 19.5596 30.1017 19.5644 30.1026 19.5692C30.1349 19.7019 30.1672 19.8345 30.1985 19.9671C30.2127 20.0276 30.2279 20.0872 30.2412 20.1477C30.2611 20.2284 30.2791 20.3101 30.2981 20.3908C32.4979 29.9161 16.0175 29.9997 15.506 29.9997Z" fill="url(#paint0_radial_1_3666)"/>
<circle cx="19.5002" cy="8.00006" r="2" fill="#D7D9FF"/>
<path d="M15.5057 29.9998C15.5057 29.9998 15.5019 29.9998 15.4934 29.9998C14.9923 29.9998 -0.856112 29.9191 0.59397 20.9424C0.60346 20.88 0.613899 20.8175 0.625287 20.7541C0.647114 20.6349 0.672738 20.5139 0.701208 20.3909C0.755301 20.1583 0.810344 19.9268 0.866335 19.6942C0.902397 19.5462 0.93846 19.3983 0.975471 19.2512C1.00964 19.1148 1.0438 18.9784 1.07891 18.8409C1.11213 18.7112 1.14534 18.5815 1.17951 18.4527C1.18046 18.4479 1.18235 18.4441 1.1833 18.4393C1.24689 18.1971 1.31237 17.955 1.3807 17.7138C1.41581 17.6869 1.45187 17.66 1.48699 17.6331C3.15724 16.3686 5.10745 14.6486 5.62371 13.1842C7.2019 8.71027 10.3384 11.2614 11.6129 12.5644C12.0181 12.9785 12.6502 13.0612 13.1408 12.7566C13.8022 12.3453 14.7218 11.5516 15.63 10.0363C16.3076 8.90629 17.715 8.45947 18.8908 9.03313C20.7917 9.96135 23.9955 12.3367 29.254 18.0847C29.4969 18.3509 29.7218 18.6123 29.9268 18.8698C29.9857 19.0975 30.0426 19.3262 30.0986 19.5549C30.1005 19.5597 30.1014 19.5645 30.1024 19.5693C30.1347 19.7019 30.1669 19.8345 30.1982 19.9671C30.2125 20.0276 30.2277 20.0872 30.2409 20.1478C30.2609 20.2285 30.2789 20.3101 30.2979 20.3909C32.4977 29.9162 16.0172 29.9998 15.5057 29.9998Z" fill="#8589EB"/>
<path opacity="0.15" d="M15.5057 30C15.5057 30 15.5019 30 15.4934 30C14.9923 30 -0.856112 29.9193 0.59397 20.9426C0.60346 20.8802 0.613899 20.8177 0.625287 20.7543C0.647114 20.6351 0.672738 20.5141 0.701208 20.3911C0.755301 20.1585 0.810344 19.9269 0.866335 19.6944C0.902397 19.5464 0.93846 19.3985 0.975471 19.2514C1.73752 19.0929 2.5717 19.1986 3.20089 20.0182C3.26353 20.0989 3.32616 20.1787 3.39069 20.2565C3.7219 20.6563 4.08442 21.0108 4.48869 21.2837C4.77719 21.4788 5.08657 21.6325 5.42157 21.7315C6.01944 21.9093 6.69893 21.9131 7.48091 21.671C8.45934 21.3692 9.5991 20.6822 10.9448 19.4667C14.98 15.822 20.6512 18.4722 22.5046 20.9023C23.6662 22.4243 26.09 22.0976 27.6777 21.6335C27.9614 21.5509 28.2414 21.4576 28.5138 21.3491C28.7738 21.2453 29.0281 21.129 29.273 20.9945C29.3261 20.9657 29.3792 20.9359 29.4314 20.9051C29.5757 20.8206 29.7161 20.7303 29.8537 20.6322C29.98 20.5419 30.1071 20.442 30.1793 20.3036C30.2058 20.2546 30.2239 20.2018 30.2409 20.148C30.2609 20.2287 30.2789 20.3103 30.2979 20.3911C32.4977 29.9164 16.0172 30 15.5057 30Z" fill="white"/>
<path opacity="0.15" d="M15.5057 30.0001C15.5057 30.0001 15.5019 30.0001 15.4934 30.0001C14.9923 30.0001 -0.856112 29.9194 0.59397 20.9427C0.60346 20.8803 0.613899 20.8178 0.625287 20.7544C0.647114 20.6352 0.672738 20.5142 0.701208 20.3912C0.755301 20.1586 0.810344 19.9271 0.866335 19.6945C0.902397 19.5466 0.93846 19.3986 0.975471 19.2516C1.00964 19.1151 1.0438 18.9787 1.07891 18.8413C1.11213 18.7115 1.14534 18.5818 1.17951 18.4531C1.18046 18.4483 1.18235 18.4444 1.1833 18.4396C1.24689 18.1975 1.31237 17.9553 1.3807 17.7141C1.38924 17.6815 1.39778 17.6488 1.40727 17.6161C1.43384 17.6219 1.46041 17.6276 1.48699 17.6334C1.86849 17.7228 2.24809 17.8967 2.61441 18.184C3.20089 18.6443 3.75321 19.3947 4.22012 20.5507C4.29889 20.7448 4.37576 20.9514 4.44884 21.1695C4.46212 21.2079 4.47446 21.2454 4.48869 21.2838C4.90531 22.4744 5.59903 23.7226 6.7777 24.2367C6.89348 24.2876 7.01495 24.3308 7.14022 24.3664C8.67097 24.7998 10.4105 23.9542 11.5987 23.025C11.9811 22.7261 12.3351 22.3889 12.7365 22.1179C15.4175 20.3066 18.739 23.0413 20.3504 25.039C20.4254 25.1322 20.4994 25.2264 20.5725 25.3206C20.8477 25.677 21.1305 25.9586 21.419 26.1709C23.9595 28.0533 26.9033 24.6671 28.8393 21.6826C28.9911 21.4501 29.1354 21.2195 29.273 20.9946C29.4865 20.6477 29.6829 20.3133 29.8613 20.0001C29.9373 19.8665 30.0094 19.7368 30.0787 19.6129C30.0863 19.5984 30.0948 19.584 30.1024 19.5696C30.1347 19.7022 30.1669 19.8348 30.1982 19.9674C30.2125 20.028 30.2277 20.0875 30.2409 20.1481C30.2609 20.2288 30.2789 20.3105 30.2979 20.3912C32.4977 29.9165 16.0172 30.0001 15.5057 30.0001Z" fill="white"/>
<path opacity="0.15" d="M15.5057 30C15.5057 30 15.5019 30 15.4934 30C14.9923 30 -0.856112 29.9192 0.59397 20.9426C1.29718 20.5256 2.34489 20.0749 3.39069 20.2565C3.6697 20.3055 3.94871 20.3987 4.22012 20.5506C4.64528 20.7869 5.0543 21.1646 5.42157 21.7315C5.63035 22.0534 5.82584 22.4368 6.00331 22.8894C6.19501 23.3813 6.45219 23.8464 6.7777 24.2365C7.29491 24.8573 7.98484 25.2878 8.86077 25.3368C10.2568 25.4146 11.5313 24.6718 12.6388 23.9079C15.1574 22.1716 17.3031 25.3175 19.8588 25.9642C20.4016 26.1016 20.9217 26.166 21.419 26.1708C24.2679 26.2006 26.3595 24.2634 27.5695 22.7231C27.9946 22.1822 28.3116 21.6902 28.5138 21.3491C28.6893 21.0531 28.7795 20.8715 28.7795 20.8715C28.7795 20.8715 29.1961 20.1633 29.8613 20C29.8832 19.9932 29.9059 19.9884 29.9287 19.9846C30.0151 19.9683 30.1052 19.9625 30.1982 19.9673C30.2125 20.0278 30.2277 20.0874 30.2409 20.148C30.2609 20.2287 30.2789 20.3103 30.2979 20.3911C32.4977 29.9164 16.0172 30 15.5057 30Z" fill="white"/>
<path opacity="0.15" d="M15.5057 30.0001C15.5057 30.0001 15.5019 30.0001 15.4934 30.0001C14.9923 30.0001 -0.856112 29.9194 0.59397 20.9427C0.60346 20.8802 0.613899 20.8178 0.625287 20.7544C0.647114 20.6352 0.672738 20.5141 0.701208 20.3912C0.755301 20.1586 0.810344 19.927 0.866335 19.6945C0.902397 19.5465 0.93846 19.3985 0.975471 19.2515C1.00964 19.1151 1.0438 18.9786 1.07891 18.8412C1.11213 18.7115 1.14534 18.5818 1.17951 18.453C1.18046 18.4482 1.18235 18.4444 1.1833 18.4396C1.65021 18.306 2.13611 18.2099 2.61441 18.184C3.92404 18.1119 5.17388 18.5645 5.81351 20.199C6.13617 21.0244 6.72076 21.451 7.48091 21.6711C7.89373 21.7912 8.35779 21.8498 8.86077 21.8776C10.2568 21.9555 11.3889 20.9379 12.6388 20.4488C18.4353 18.1811 19.9594 21.844 22.4211 22.7934C24.7206 23.6803 26.388 23.4016 27.5695 22.7232C28.0801 22.4302 28.4995 22.0631 28.8393 21.6826C29.0727 21.4231 29.2682 21.157 29.4314 20.9052C29.6573 20.5545 29.8205 20.2307 29.9287 19.9847C30.0018 19.8204 30.0511 19.6916 30.0787 19.6128C30.0872 19.5888 30.0938 19.5696 30.0986 19.5552C30.1005 19.56 30.1014 19.5648 30.1024 19.5696C30.1347 19.7022 30.1669 19.8348 30.1982 19.9674C30.2125 20.0279 30.2277 20.0875 30.2409 20.148C30.2609 20.2288 30.2789 20.3104 30.2979 20.3912C32.4977 29.9165 16.0172 30.0001 15.5057 30.0001Z" fill="white"/>
</g>
<defs>
<radialGradient id="paint0_radial_1_3666" cx="0" cy="0" r="1" gradientUnits="userSpaceOnUse" gradientTransform="translate(15.5001 14.9998) scale(14.9075 15.0942)">
<stop offset="2.23767e-07" stop-color="#8485E0"/>
<stop offset="1" stop-color="#7680FC"/>
</radialGradient>
<clipPath id="clip0_1_3666">
<rect width="30" height="30" fill="white" transform="translate(0.5)"/>
</clipPath>
</defs>
</svg>
