<svg width="25" height="25" viewBox="0 0 25 25" fill="none" xmlns="http://www.w3.org/2000/svg">
<path d="M24.4108 13.2334C24.4108 12.2441 24.3305 11.5221 24.1568 10.7734H12.8596V15.2388H19.4908C19.3571 16.3485 18.6352 18.0196 17.0308 19.1426L17.0084 19.2921L20.5803 22.0592L20.8278 22.0839C23.1005 19.9849 24.4108 16.8966 24.4108 13.2334Z" fill="#4285F4"/>
<path d="M12.8596 24.9984C16.1083 24.9984 18.8357 23.9288 20.8278 22.0839L17.0308 19.1426C16.0148 19.8511 14.6511 20.3458 12.8596 20.3458C9.67773 20.3458 6.97713 18.2469 6.01444 15.3457L5.87333 15.3577L2.15917 18.2321L2.1106 18.3672C4.08925 22.2977 8.15355 24.9984 12.8596 24.9984Z" fill="#34A853"/>
<path d="M6.01442 15.3457C5.76041 14.5971 5.6134 13.7948 5.6134 12.966C5.6134 12.137 5.76041 11.3349 6.00106 10.5862L5.99433 10.4268L2.23362 7.50616L2.11058 7.56469C1.29508 9.19577 0.827148 11.0274 0.827148 12.966C0.827148 14.9045 1.29508 16.7361 2.11058 18.3672L6.01442 15.3457Z" fill="#FBBC05"/>
<path d="M12.86 5.58611C15.1194 5.58611 16.6435 6.56208 17.5125 7.37767L20.9083 4.06203C18.8228 2.12348 16.1087 0.933594 12.86 0.933594C8.15392 0.933594 4.08961 3.63419 2.11096 7.56477L6.00144 10.5863C6.9775 7.68514 9.67809 5.58611 12.86 5.58611Z" fill="#EB4335"/>
</svg>
