<svg width="248" height="168" viewBox="0 0 248 168" fill="none" xmlns="http://www.w3.org/2000/svg">
<g clip-path="url(#clip0_119_4)">
<path d="M247 79.1C239.728 64.4312 230.1 51.0538 218.5 39.5C192.6 13.7 160 0 124 0C87.9999 0 55.3999 13.7 29.4999 39.5C17.8997 51.0538 8.27205 64.4312 0.999929 79.1C0.356221 80.6534 0.0249023 82.3185 0.0249023 84C0.0249023 85.6815 0.356221 87.3466 0.999929 88.9C8.27205 103.569 17.8997 116.946 29.4999 128.5C55.3999 154.3 87.9999 168 124 168C160 168 192.6 154.3 218.5 128.5C230.1 116.946 239.728 103.569 247 88.9C247.644 87.3466 247.975 85.6815 247.975 84C247.975 82.3185 247.644 80.6534 247 79.1ZM200.9 112.1C179.5 133.3 153.6 144 124 144C94.3999 144 68.4999 133.3 47.0999 112.1C38.6639 103.752 31.3979 94.2992 25.4999 84C31.3717 73.6834 38.6404 64.2274 47.0999 55.9C68.4999 34.7 94.3999 24 124 24C153.6 24 179.5 34.7 200.9 55.9C209.336 64.2482 216.602 73.7008 222.5 84C216.602 94.2992 209.336 103.752 200.9 112.1ZM124 40C115.298 40 106.791 42.5806 99.5548 47.4153C92.3191 52.2501 86.6795 59.122 83.3492 67.1619C80.019 75.2019 79.1476 84.0488 80.8454 92.584C82.5431 101.119 86.7337 108.959 92.8872 115.113C99.0407 121.266 106.881 125.457 115.416 127.155C123.951 128.852 132.798 127.981 140.838 124.651C148.878 121.32 155.75 115.681 160.585 108.445C165.419 101.209 168 92.7024 168 84C168 72.3305 163.364 61.1389 155.113 52.8873C146.861 44.6357 135.669 40 124 40ZM124 104C120.044 104 116.178 102.827 112.889 100.629C109.6 98.4318 107.036 95.3082 105.522 91.6537C104.009 87.9991 103.613 83.9778 104.384 80.0982C105.156 76.2186 107.061 72.6549 109.858 69.8579C112.655 67.0608 116.219 65.156 120.098 64.3843C123.978 63.6126 127.999 64.0087 131.654 65.5224C135.308 67.0362 138.432 69.5996 140.629 72.8886C142.827 76.1776 144 80.0444 144 84C143.974 89.2962 141.858 94.3681 138.113 98.1131C134.368 101.858 129.296 103.974 124 104Z" fill="black"/>
</g>
<defs>
<clipPath id="clip0_119_4">
<rect width="248" height="168" fill="white"/>
</clipPath>
</defs>
</svg>
