<svg width="24" height="12" viewBox="0 0 24 12" fill="none" xmlns="http://www.w3.org/2000/svg">
<path d="M19.0942 3.0986C19.8067 2.2107 20.1424 1.51117 20.1424 1.51117L19.0942 3.0986ZM19.0942 3.0986C18.4165 3.94325 17.398 4.95846 16.0034 5.70406M19.0942 3.0986L16.0034 5.70406M19.0942 3.0986L22.2388 4.65583M11.7566 6.75228C10.0711 6.75228 8.66213 6.3202 7.50988 5.70406M11.7566 6.75228L7.50988 5.70406M11.7566 6.75228C13.4422 6.75228 14.8511 6.3202 16.0034 5.70406M11.7566 6.75228L16.0034 5.70406M11.7566 6.75228V10.4211M7.50988 5.70406L4.41908 8.84872M7.50988 5.70406C6.18974 4.99818 5.20655 4.0508 4.53048 3.23528M7.50988 5.70406L4.53048 3.23528M16.0034 5.70406L18.5701 8.84872M4.53048 3.23528C3.74158 2.28352 3.37086 1.51117 3.37086 1.51117L4.53048 3.23528ZM4.53048 3.23528L1.27441 4.65583" stroke="#3F414E" stroke-width="2" stroke-linecap="round" stroke-linejoin="round"/>
</svg>
